<svg width="16" height="20" viewBox="0 0 16 20" fill="none" xmlns="http://www.w3.org/2000/svg">
<path d="M8.19252 7.69518L11.6054 11.108C11.6633 11.1659 11.7299 11.1948 11.8051 11.1948C11.8804 11.1948 11.947 11.166 12.0049 11.108L12.4391 10.674C12.497 10.6161 12.526 10.5495 12.526 10.4743C12.526 10.3989 12.497 10.3323 12.4391 10.2745L8.39237 6.22741C8.33448 6.16952 8.26787 6.14063 8.19261 6.14063C8.11733 6.14063 8.05075 6.16952 7.99286 6.22741L3.94609 10.2745C3.88812 10.3323 3.85937 10.3989 3.85937 10.4743C3.85937 10.5495 3.88818 10.6161 3.94609 10.674L4.38006 11.108C4.43795 11.1659 4.50459 11.1948 4.57991 11.1948C4.6551 11.1948 4.72168 11.166 4.77957 11.108L8.19252 7.69518Z" fill="#5068A5"/>
<path d="M8.19252 11.0285L11.6054 14.4414C11.6633 14.4993 11.7299 14.5281 11.8051 14.5281C11.8804 14.5281 11.947 14.4993 12.0049 14.4414L12.4391 14.0073C12.497 13.9494 12.526 13.8828 12.526 13.8077C12.526 13.7323 12.497 13.6657 12.4391 13.6078L8.39237 9.56075C8.33448 9.50287 8.26787 9.47397 8.19261 9.47397C8.11733 9.47397 8.05075 9.50287 7.99286 9.56075L3.94609 13.6078C3.88812 13.6657 3.85937 13.7322 3.85937 13.8077C3.85937 13.8828 3.88818 13.9494 3.94609 14.0073L4.38006 14.4414C4.43795 14.4993 4.50459 14.5281 4.57991 14.5281C4.6551 14.5281 4.72168 14.4993 4.77957 14.4414L8.19252 11.0285Z" fill="#5068A5"/>
</svg>
