<svg width="24" height="22" viewBox="0 0 24 22" fill="none" xmlns="http://www.w3.org/2000/svg">
<path d="M23.9682 14.1677C23.93 14.244 23.8665 14.3048 23.7885 14.3397C23.7106 14.3745 23.6229 14.3814 23.5405 14.359C23.4581 14.3366 23.386 14.2864 23.3363 14.2169C23.2867 14.1474 23.2626 14.0629 23.2682 13.9777V5.25768C16.6082 5.25768 9.93824 5.25768 3.26824 5.25768C3.18513 5.25252 3.1073 5.21516 3.05128 5.15355C2.99527 5.09193 2.96548 5.01091 2.96824 4.92768C2.95679 4.84421 2.97872 4.7596 3.02927 4.6922C3.07982 4.6248 3.15491 4.58006 3.23824 4.56768C9.90824 4.56768 16.5882 4.56768 23.2382 4.56768C23.2382 3.64768 23.2382 2.72768 23.2382 1.79768C23.2382 1.25768 22.8482 1.03768 22.3482 1.07768C15.3482 1.07768 8.34824 1.07768 1.34824 1.07768C1.19086 1.0829 1.04184 1.14979 0.933329 1.26391C0.824823 1.37803 0.765529 1.53023 0.76824 1.68768C0.76824 2.62768 0.76824 3.56768 0.76824 4.54768C1.16824 4.54768 1.68824 4.41768 1.98824 4.75768C2.01778 4.81029 2.03234 4.86999 2.03032 4.93029C2.0283 4.99059 2.00979 5.04918 1.9768 5.0997C1.94381 5.15022 1.8976 5.19072 1.8432 5.21681C1.7888 5.2429 1.72829 5.25358 1.66824 5.24768C1.36824 5.24768 1.07824 5.24768 0.75824 5.24768V20.1277C0.75824 20.6977 0.98824 20.9277 1.54824 20.9277H22.5482C23.0982 20.9277 23.3282 20.6877 23.3282 20.1377V15.7477C23.3282 15.2677 23.7982 15.2077 24.0282 15.5277V20.5277C23.6982 21.3477 23.3382 21.6277 22.5582 21.6277C15.3982 21.5677 8.20824 21.7477 1.05824 21.5577C0.827502 21.4863 0.618963 21.3569 0.452615 21.1818C0.286266 21.0067 0.167686 20.7918 0.10824 20.5577C0.0982397 14.0877 -0.19176 7.57768 0.10824 1.17768C0.22579 0.913348 0.422885 0.692281 0.672048 0.545292C0.921212 0.398304 1.21003 0.332718 1.49824 0.357678C8.57824 0.357678 15.6482 0.357678 22.7282 0.357678C22.9398 0.382731 23.1418 0.459769 23.3163 0.581914C23.4908 0.704059 23.6323 0.867511 23.7282 1.05768C24.1982 5.35768 23.7782 9.82768 23.9682 14.1677Z" fill="#717B9E"/>
<path d="M2.90824 14.0777C1.98824 14.1477 2.07824 13.2877 2.09824 12.6177C2.14824 11.6877 2.84824 12.1577 2.99824 11.7577C3.14824 11.3577 3.47824 10.9777 3.28824 10.7577C3.21481 10.6967 3.15571 10.6203 3.11516 10.5338C3.0746 10.4474 3.05357 10.3531 3.05357 10.2577C3.05357 10.1622 3.0746 10.0679 3.11516 9.98151C3.15571 9.8951 3.21481 9.81867 3.28824 9.75768C3.66824 9.35768 4.19824 8.75768 4.73824 9.24768C4.96824 9.45768 5.65824 8.92768 5.96824 8.85768C5.88824 7.92768 6.81824 8.01768 7.46824 8.04768C8.35824 8.10768 7.86824 8.82768 8.33824 8.95768C8.64824 9.01768 8.97824 9.36768 9.33824 9.22768C9.40109 9.15721 9.47813 9.10083 9.56429 9.06222C9.65046 9.02362 9.74382 9.00366 9.83824 9.00366C9.93266 9.00366 10.026 9.02362 10.1122 9.06222C10.1984 9.10083 10.2754 9.15721 10.3382 9.22768C10.7382 9.60768 11.3982 10.1277 10.8482 10.6777C10.6082 10.8977 11.1282 11.5577 11.1982 11.8877C12.1182 11.8077 12.0382 12.7077 12.0182 13.3677C11.9482 14.2877 11.2282 13.7777 11.0982 14.2477C11.0982 14.5577 10.6182 14.9877 10.8382 15.2477C10.9133 15.3076 10.9739 15.3837 11.0155 15.4703C11.0571 15.5568 11.0787 15.6516 11.0787 15.7477C11.0787 15.8437 11.0571 15.9385 11.0155 16.0251C10.9739 16.1116 10.9133 16.1877 10.8382 16.2477C10.4482 16.6577 9.90824 17.3577 9.34824 16.7977C9.33228 16.7741 9.3117 16.7541 9.28776 16.7387C9.26382 16.7234 9.23701 16.7131 9.20895 16.7084C9.1809 16.7037 9.15219 16.7048 9.12457 16.7115C9.09694 16.7183 9.07097 16.7306 9.04824 16.7477C8.76207 16.9049 8.46048 17.0322 8.14824 17.1277C8.22824 18.0577 7.32824 17.9977 6.65824 17.9577C5.75824 17.8977 6.21824 17.1977 5.81824 17.0577C5.41824 16.9177 5.03824 16.5777 4.81824 16.7677C4.75724 16.8411 4.68082 16.9002 4.59441 16.9408C4.50799 16.9813 4.4137 17.0023 4.31824 17.0023C4.22278 17.0023 4.12849 16.9813 4.04207 16.9408C3.95566 16.9002 3.87924 16.8411 3.81824 16.7677C3.42824 16.3877 2.81824 15.8577 3.31824 15.3177C3.50824 15.0677 2.96824 14.3577 2.90824 14.0777ZM11.2982 13.3577V12.6377C11.1359 12.6685 10.9679 12.64 10.8247 12.5575C10.6816 12.4749 10.5728 12.3437 10.5182 12.1877C10.3482 11.5677 9.64824 10.8177 10.2882 10.2677L9.78824 9.75768C9.26824 10.4277 8.46824 9.70768 7.85824 9.53768C7.70682 9.4767 7.58021 9.36672 7.49864 9.22533C7.41707 9.08394 7.38524 8.91928 7.40824 8.75768H6.68824C6.72116 8.92281 6.69256 9.09428 6.60784 9.23979C6.52311 9.38529 6.3881 9.4948 6.22824 9.54768C5.60824 9.70768 4.86824 10.4177 4.31824 9.75768L3.79824 10.2577C4.47824 10.7877 3.79824 11.5577 3.59824 12.1777C3.53923 12.3318 3.43042 12.4617 3.2891 12.5469C3.14777 12.632 2.98204 12.6675 2.81824 12.6477V13.3577C3.32824 13.2977 3.55824 13.5777 3.67824 14.0277C3.79824 14.4777 4.42824 15.2077 3.83824 15.6877L4.32824 16.2277C4.84824 15.5577 5.61824 16.2277 6.22824 16.4377C6.38638 16.4939 6.5199 16.6037 6.60572 16.7479C6.69154 16.8922 6.72426 17.0619 6.69824 17.2277H7.42824C7.42824 16.6977 7.66824 16.4777 8.11824 16.3577C8.56824 16.2377 9.26824 15.6177 9.77824 16.2077L10.3182 15.7377C9.64824 15.1477 10.3182 14.6477 10.4582 13.9977C10.5982 13.3477 10.7282 13.3577 11.2982 13.3577Z" fill="#717B9E"/>
<path d="M8.39824 3.15768C6.39824 3.15768 4.39824 3.15768 2.46824 3.15768C2.35824 3.08768 2.21824 2.96768 2.21824 2.85768C2.22177 2.80095 2.23706 2.74558 2.26312 2.69508C2.28919 2.64458 2.32548 2.60005 2.36967 2.56432C2.41387 2.52859 2.46501 2.50243 2.51985 2.48752C2.57469 2.4726 2.63203 2.46925 2.68824 2.47768H14.1082C14.3482 2.47768 14.6282 2.57768 14.5782 2.86768C14.5282 3.15768 14.2782 3.19768 14.0482 3.17768L8.39824 3.15768Z" fill="#717B9E"/>
<path d="M16.7982 16.9477C16.7982 17.2288 16.6866 17.4984 16.4878 17.6972C16.289 17.896 16.0194 18.0077 15.7382 18.0077C15.4571 18.0077 15.1875 17.896 14.9887 17.6972C14.7899 17.4984 14.6782 17.2288 14.6782 16.9477C14.3582 16.9477 13.6782 17.0577 13.6782 16.5977C13.6782 16.3777 13.8182 16.2577 14.0782 16.2477C14.3382 16.2377 14.4582 16.2477 14.5882 16.2477C14.7182 16.2477 14.6782 16.0177 14.7282 15.8977C14.7773 15.6325 14.9297 15.3976 15.1519 15.2448C15.3742 15.0919 15.648 15.0336 15.9132 15.0827C16.1785 15.1317 16.4133 15.2842 16.5662 15.5064C16.719 15.7286 16.7773 16.0025 16.7282 16.2677H21.2382C21.4782 16.2677 21.7882 16.3277 21.7582 16.6277C21.7282 16.9277 21.4482 16.9877 21.2082 16.9677L16.7982 16.9477ZM15.4082 16.5977C15.2682 17.3477 15.9482 17.4677 16.0582 16.9777C16.078 16.7214 16.078 16.464 16.0582 16.2077C15.9682 15.7377 15.2682 15.8477 15.4082 16.5977Z" fill="#717B9E"/>
<path d="M16.7882 9.77768C16.7627 10.0398 16.6405 10.283 16.4455 10.4599C16.2505 10.6368 15.9966 10.7348 15.7332 10.7348C15.4699 10.7348 15.216 10.6368 15.021 10.4599C14.826 10.283 14.7038 10.0398 14.6782 9.77768C14.3682 9.77768 13.6782 9.88768 13.6782 9.42768C13.6782 8.96768 14.3182 9.12768 14.6782 9.05768C14.7038 8.79559 14.826 8.5524 15.021 8.37546C15.216 8.19852 15.4699 8.10051 15.7332 8.10051C15.9966 8.10051 16.2505 8.19852 16.4455 8.37546C16.6405 8.5524 16.7627 8.79559 16.7882 9.05768H21.3082C21.5382 9.05768 21.8182 9.05768 21.8182 9.38768C21.8182 9.71768 21.5482 9.78768 21.2982 9.75768L16.7882 9.77768ZM15.4082 9.35768C15.2682 10.1477 15.9582 10.2377 16.0582 9.74768C16.0782 9.50142 16.0782 9.25394 16.0582 9.00768C15.9682 8.52768 15.2682 8.66768 15.4082 9.35768Z" fill="#717B9E"/>
<path d="M18.7582 13.3577C17.1482 13.3577 15.5482 13.4177 13.9482 13.3577C13.4882 13.1677 13.7982 12.5777 14.2482 12.6977H18.7482C18.7482 12.4165 18.8599 12.1469 19.0587 11.9481C19.2575 11.7494 19.5271 11.6377 19.8082 11.6377C20.0894 11.6377 20.359 11.7494 20.5578 11.9481C20.7566 12.1469 20.8682 12.4165 20.8682 12.6977C21.1782 12.6977 21.8682 12.5677 21.8682 13.0377C21.8682 13.5077 21.2382 13.3877 20.9182 13.3977C20.9129 13.6841 20.7941 13.9567 20.5878 14.1555C20.3815 14.3543 20.1047 14.463 19.8182 14.4577C19.5318 14.4524 19.2592 14.3335 19.0604 14.1272C18.8616 13.9209 18.7529 13.6441 18.7582 13.3577ZM20.1382 13.0277C20.2682 12.2477 19.5782 12.1177 19.4782 12.6477C19.4583 12.8873 19.4583 13.1281 19.4782 13.3677C19.5782 13.8877 20.2782 13.7477 20.1382 13.0377V13.0277Z" fill="#717B9E"/>
<path d="M20.4682 1.60768C20.7865 1.60768 21.0917 1.73411 21.3168 1.95915C21.5418 2.18419 21.6682 2.48942 21.6682 2.80768C21.6682 3.12594 21.5418 3.43116 21.3168 3.65621C21.0917 3.88125 20.7865 4.00768 20.4682 4.00768C20.15 4.00768 19.8448 3.88125 19.6197 3.65621C19.3947 3.43116 19.2682 3.12594 19.2682 2.80768C19.2682 2.48942 19.3947 2.18419 19.6197 1.95915C19.8448 1.73411 20.15 1.60768 20.4682 1.60768ZM20.4682 2.30768C20.3356 2.30768 20.2085 2.36036 20.1147 2.45412C20.0209 2.54789 19.9682 2.67507 19.9682 2.80768C19.9682 2.94029 20.0209 3.06746 20.1147 3.16123C20.2085 3.255 20.3356 3.30768 20.4682 3.30768C20.5679 3.27376 20.6544 3.20923 20.7153 3.12328C20.7761 3.03733 20.8083 2.93436 20.8072 2.82906C20.8061 2.72375 20.7717 2.62148 20.7091 2.53684C20.6464 2.45219 20.5586 2.38949 20.4582 2.35768L20.4682 2.30768Z" fill="#717B9E"/>
<path d="M17.0182 4.00768C16.8607 4.00243 16.7056 3.96618 16.5621 3.90103C16.4185 3.83587 16.2891 3.74307 16.1814 3.62792C15.9639 3.39538 15.8476 3.08594 15.8582 2.76768C15.8688 2.44942 16.0054 2.14841 16.238 1.93087C16.4705 1.71332 16.78 1.59707 17.0982 1.60768C17.4165 1.61829 17.7175 1.75489 17.9351 1.98743C18.1526 2.21998 18.2688 2.52942 18.2582 2.84768C18.2476 3.16594 18.111 3.46695 17.8785 3.68449C17.6459 3.90203 17.3365 4.01829 17.0182 4.00768ZM17.5482 2.81768C17.5482 2.68507 17.4956 2.55789 17.4018 2.46412C17.308 2.37036 17.1808 2.31768 17.0482 2.31768C16.9156 2.31768 16.7885 2.37036 16.6947 2.46412C16.6009 2.55789 16.5482 2.68507 16.5482 2.81768C16.5482 2.95029 16.6009 3.07746 16.6947 3.17123C16.7885 3.265 16.9156 3.31768 17.0482 3.31768C17.1808 3.31768 17.308 3.265 17.4018 3.17123C17.4956 3.07746 17.5482 2.95029 17.5482 2.81768Z" fill="#717B9E"/>
<path d="M4.48824 13.0077C4.52901 12.3551 4.81699 11.7426 5.29354 11.2949C5.77009 10.8471 6.39937 10.5979 7.05324 10.5979C7.70711 10.5979 8.33639 10.8471 8.81294 11.2949C9.28949 11.7426 9.57747 12.3551 9.61824 13.0077C9.57747 13.6603 9.28949 14.2728 8.81294 14.7205C8.33639 15.1682 7.70711 15.4174 7.05324 15.4174C6.39937 15.4174 5.77009 15.1682 5.29354 14.7205C4.81699 14.2728 4.52901 13.6603 4.48824 13.0077ZM7.04824 14.8677C7.51928 14.8332 7.95981 14.6217 8.28134 14.2757C8.60287 13.9298 8.78158 13.475 8.78158 13.0027C8.78158 12.5304 8.60287 12.0756 8.28134 11.7296C7.95981 11.3837 7.51928 11.1722 7.04824 11.1377C6.5772 11.1722 6.13667 11.3837 5.81514 11.7296C5.49361 12.0756 5.3149 12.5304 5.3149 13.0027C5.3149 13.475 5.49361 13.9298 5.81514 14.2757C6.13667 14.6217 6.5772 14.8332 7.04824 14.8677Z" fill="#717B9E"/>
</svg>
