<svg width="16" height="20" viewBox="0 0 16 20" fill="none" xmlns="http://www.w3.org/2000/svg">
<path d="M8.19252 12.9741L11.6054 9.56121C11.6633 9.50332 11.7299 9.47448 11.8051 9.47448C11.8804 9.47448 11.947 9.50329 12.0049 9.56121L12.4391 9.99527C12.497 10.0532 12.526 10.1198 12.526 10.1949C12.526 10.2703 12.497 10.3369 12.4391 10.3948L8.39237 14.4418C8.33448 14.4997 8.26787 14.5286 8.19261 14.5286C8.11733 14.5286 8.05075 14.4997 7.99286 14.4418L3.94609 10.3948C3.88812 10.3369 3.85937 10.2704 3.85937 10.1949C3.85937 10.1198 3.88818 10.0531 3.94609 9.9953L4.38006 9.56121C4.43795 9.50332 4.50459 9.47448 4.57991 9.47448C4.6551 9.47448 4.72168 9.50329 4.77957 9.56121L8.19252 12.9741Z" fill="#5068A5"/>
<path d="M8.19252 9.64076L11.6054 6.22789C11.6633 6.17001 11.7299 6.14117 11.8051 6.14117C11.8804 6.14117 11.947 6.16998 12.0049 6.22789L12.4391 6.66195C12.497 6.71984 12.526 6.78645 12.526 6.86161C12.526 6.93699 12.497 7.0036 12.4391 7.06146L8.39237 11.1085C8.33448 11.1664 8.26787 11.1953 8.19261 11.1953C8.11733 11.1953 8.05075 11.1664 7.99286 11.1085L3.94609 7.06146C3.88812 7.0036 3.85937 6.93705 3.85937 6.86161C3.85937 6.78645 3.88818 6.71984 3.94609 6.66198L4.38006 6.22789C4.43795 6.17001 4.50459 6.14117 4.57991 6.14117C4.6551 6.14117 4.72168 6.16998 4.77957 6.22789L8.19252 9.64076Z" fill="#5068A5"/>
</svg>
